<svg id="Capa_1" data-name="Capa 1" xmlns="http://www.w3.org/2000/svg" viewBox="0 0 144 76.07"><title>minilogo MKT</title><path d="M83,25.41l-2,1.34c-4,2.67-7.82,5.41-11.32,8.15l-.25-.35c2.36-1.76,4.83-3.51,7.41-5.22Q79.88,27.28,83,25.41Z" transform="translate(0 -1.96)"/><path d="M137.27,14.24l3-10.17-9.91,3.84L121.52,2l.61,10.58L113.72,19,124,21.72l2,5.51C120,34.41,110.53,42.67,99.12,50.41L99.77,22l13.19.3.2-9.75-41.2,0L57.78,30.32l.41-18-9.82-.22-.73,31.74-6-33.42-.75,0L25.45,37,10.35,9.66l-.72,0L0,52.27l8.88.2L13,33.33l11.54,21,.66,0,11.64-20.2,3.1,19,7.51.17,1.63,0-.15.18C41.75,62.3,38.75,70,41.71,74.44,47.3,82.78,72.06,76.12,97,59.56c15.85-10.52,28-22.51,33.26-32h0l3.09-4.79L144,22.44ZM57.68,34.64,62,40.45c-1.58,1.34-3.09,2.7-4.52,4ZM45.8,67.94c-2-3-.14-8.14,4.56-14.35l6.89.16.18-8.15q2.3-2.28,4.93-4.64l9.71,13.13,12,.27L69.61,34.9l-.25-.35-1.73-2.32,9-10.76,13.22.3-.75,32.81,3.5.08C70.44,68.36,50.07,74.31,45.8,67.94Z" transform="translate(0 -1.96)"/></svg>