<svg id="Capa_1" data-name="Capa 1" xmlns="http://www.w3.org/2000/svg" viewBox="0 0 984.98 991"><defs><style>.cls-1{fill:#cad125;}.cls-1,.cls-2{fill-rule:evenodd;}.cls-2,.cls-4{fill:#fff;}.cls-3{fill:#f0ce00;}</style></defs><title>logo AlterWeb</title><path class="cls-1" d="M211.6,6H555.13c127.8,0,232.36,104.84,232.36,233V572.65H211.6Z" transform="translate(-7.05 -6)"/><path class="cls-2" d="M262.61,275.11s3.94,5.21,7,4.49,17.4-14.37,18.13-17.12,5.41-9,2.19-12.18-3.36-4.37-6.44-4.66-6.57,0-9.06,4.07-4.38,10.88-6.44,14.37-4.53,7-5,9l-.43,2M214.54,480l-.65,16.5s24.72,4.67,30.6,10.78.93,1.15.93,1.15A15.61,15.61,0,0,0,238,509c-3.93,1.3-19,13.63-19,13.63l5.24,9.74s6.41-6.75,14.26-9.34,7.19-6,15.83-4.43a121.82,121.82,0,0,0,15.83,1.83s-2.36-2.6-10.2-6.49-8.11-3.38-12.43-9a67,67,0,0,0-12-12.2c-4.06-3.24-9.29-5.73-13.22-8.19S214.54,480,214.54,480Zm58.22,26.88,24.6,20s2.35.53-.27,3-4.32,5.07-6,3.12-2.88-6.1-4.84-7.15-1.31-.12-2.49.4-1,1.31-3.28-1.69-2.22-1.3-4.18-4.54-3.53-3.63-3.53-6.62Zm76.12-218.57s3.25.56,7.76,4.31,7.75,11.12,7.75,12.74-.18,3.05,5.23,2.32,12.44-9.14,15.14-11.47,10.46-11.11,10.28-15.6,0-7.88-4.87-10.4-3.61-4.66-7.94-3.58a29.2,29.2,0,0,0-12.07,5.55c-4.15,3.23-3.07,3.06-7.76,6.29s-5,3-8.11,5.55S348.88,288.34,348.88,288.34ZM433.81,276s-.37,5.38,2.52,8.42,6.85,5.2,7.58,6.46,4.14,5.92,1.44,9a24.86,24.86,0,0,1-9.56,7c-4,1.63-9.74.54-11.73-3s-8.64-12-9.91-15.78-2.88-11.29,2.16-13.62,7.57-3.59,10.82-2.33A31.19,31.19,0,0,1,433.81,276Zm-39.39,66.47s-2.29-1.27-.43-3.84,1.29-3.13,3-4.42,3.58-2.27,3.58.86,2.29,8.4,3.29,10.53,2.44,3.14,2.58,4.41-1.14,2.57-3,2.85-1.72-.56-3.44-2.7-3-4-4.29-5.83Zm-2.15,230.2h-40c-.57-1.83-3.5-7.21-7.56-7.41-2.93-.14-2.49-3.92-1.32-6.53s5.12-9.57.88-10.89-4.54,2.32-6.73.73-3.36-5.52-4.09-7.11-.73-3-3.51-2.17-4,.86-5-2.62-3.37-17.85,1-25.39,10.82-16.26,12.28-19.6,20-41.35,20-41.35,13-32.8,19.59-40.34,21.64-19.88,26.33-22.05a22.11,22.11,0,0,0,9.06-7.11c2.48-3.05,1.9-7.84,8-9.29s8.19.14,9.8-1.3,3.65-4.51,4.23-.74,5.56,6.39,10.68,6,5.12.87,7-.44,1.61-2.32,3.65-.29,5,4.79,5.71,7.84.29,7.11,2.92,7.11,4.69-1.17,6.58,1.73,0,8,.73,10.16,3.37,2.32,4.39,3.63,2.05,3.48,2.05,7.26.43,4.49-2.64,8.84-2.62,7-3.65,10.75.3,8.13-2,9.87-1.62,1.73-8.64,1.88-9.64.3-17.1.3-8.34,1.3-10.68-1.9S430,438.27,430,432.6s-.73-8.11-.87-13.49.59-7.39-1.75-11.18-4.25-5.07-4.25-8.11-2.34-8.86-3.95-6.1a12,12,0,0,0-1.75,7.11,9.32,9.32,0,0,1-1.17,4.5s-5.41,2.17-7.89,6.67-5.86,13.49-6,16.83,0,7.41-2.48,9.73-3.95,3.18-7.9,6.39-6.87,5.07-7.31,5.79-1.76,1.6,3.36.15a69.5,69.5,0,0,0,10.53-3.62c4.53-1.89,5.12-1.6,6.87-5.37s2.34-6.38,5.12-10.89,2.63-5.95,5-7.39,3.07-3.64,4.24-.15.73,8.26.73,10.45-.44,4.35,0,5.07a4,4,0,0,1,1.17,3.05c.14,2.33.88,3.78-2.63,5.66s-3.51,1.59-9.07,3.62-16.38,10.17-19.88,12.49-5,5.22-8,5.66-3.81-1-5.71-2.61-8.34-5.37-8.34-5.37-6.87-3.78-3.5,3.77,6.72,13.64,6,18-2.78,15.09-5.26,17.71-2.93,6.52-6,8.41-5.56,1.45-4.38,5.66,1.89,10.74,4.23,12.92,6.44,11.32,10.1,12.18,10.67,1.45,7.31-2a79.45,79.45,0,0,1-9.22-11.32c-1.6-2.76-2.77-3.92-2.77-7.84s-1.32-7.11.73-10.3,4.68-4.5,8.48-7.25,21.79-19.32,27.64-23.52,10.09-6.53,12.72-10.15,7.9-8.13,8.63-8.13.73,2.17.87,4.49-.73,5.38,2.2,4.07a66.46,66.46,0,0,0,7.6-4.07c3.8-2.17,4.39-2.47,10.38-3.62s8.92-3.05,13.46-2.76,8.18.14,8,4.65-1.32,7.84.44,8.27,7.31,1.59,8.48,3.91,2.48.87,1.46,3.64-2.05,3.62-3.95,7.54a21.62,21.62,0,0,0-2.05,10.45c.15,2.6,2.64,7.54,1.61,9.86s-2.34,4.64-1.61,7.41a24.53,24.53,0,0,1,.88,7c0,2.32,1.32,6-1.17,3.63s-3.51-4.06-5-8.85a69,69,0,0,1-2.2-9.58c-.87-4.36-.58-9.3-.87-11.32s0-5.65-2.49-3-2.92,9.73-2.92,13.06.15,6.25.29,11.32.15,8,.15,11,.88,7-.15,8.57-.44,1.73-4.83,3.19a18.42,18.42,0,0,0-7.31,4.78s-9.79,8.56-12.86,10-6.14,2-9.8,6.09-4.53,3.92-8.63,5.81-2.92,2.47-5.85,2.16-2.92-.13-7.16-2.45a37,37,0,0,1-7.6-5.37c-2.49-2-4.83-4.21-5.71-4.21a3.56,3.56,0,0,0-2.78,4.92C385,563.5,392.27,572.65,392.27,572.65ZM436.64,349s-.33,5.54.85,8.72.66,4.36,4.89,5.7,5.4,2.18,9.61.85,3.88-1.86,4.22-7.05,3.88-7.05.17-8.39-3.54-1.34-7.26-1.51-2.86.34-6.91-.16S436.64,349,436.64,349Zm20.24-44.45s-3,12.08.51,17.78a52.21,52.21,0,0,0,11.47,13.42,31.34,31.34,0,0,0,7.59,4.36l.84-7.71s-3.71,1.32-8.43-5.38-6.24-4.69-7.42-10.73a27.41,27.41,0,0,0-3.54-9.73Zm32.56,51.66a9,9,0,0,0,6.58,5.19,77,77,0,0,0,12.82.51s-21.59,29.36-21.59,33.88-3.21,7.22-3.71-2.34-.17-10.06,1-16.77.34-9.23,1.35-12.92A31.61,31.61,0,0,1,489.44,356.17ZM315.53,314.34A20.61,20.61,0,0,0,324,310c4-3.4,5.95-9.32,9.19-11.65s4.51-5.92,12.26-4.11,12.62,3.21,13.17,8.05,5.94,10.23,1.44,13.63-8.66,7.18-15.32,9.68-6.86,3.41-9.39,4.84-2.52,2.87-6.84,1.79-5.78-2.15-8.3-5.19-5-3.23-5-6.28S315.53,314.34,315.53,314.34Zm141.9-16.66s1.08-20.27,8.29-20.62,15-.19,15-.19A56.86,56.86,0,0,0,465,264.51c-9.38-4.84-23.26-11.12-26.51.18s2.16,15.24,6,20.25S457.43,297.68,457.43,297.68Zm-66.18,8.61s6.13,16.85,7,18.81,4,3.95-1.81,4.85-9.19,2.15-11.18-1.62-4.51-7-6.67-7.88-7-1.63-4,3,6.13,8.25,5.59,12.72-3.6,4.86-8.83,8.43-9.56,6.64-13.16,3.77-8.48-6.28-8.48-9.85-2.88-4.67,3.61-9.15,6.49-6.81,13.52-10,5.23-4.13,7.94-6.64,1.62-3.77,5.58-5.73,6.67-4.48,8.12-4.13S391.25,306.29,391.25,306.29Zm-16.59,97.52s1-5.26,1.72-11.67-1-7.69.43-9.69,2.72-1.14,6.87-3.55,10-5,12.31-7.83,2.15-6.27,4.59-2,4.73,6.26,5.15,7.11,2.58,3-.42,5.28A137.38,137.38,0,0,1,391,392,201.22,201.22,0,0,0,374.66,403.81Zm37.52-46.13c2.87.84,3.21.5,6.07,1.84s1.86,1,7.26,2.69,6.58,3.69,6.74-.34.51-8.38-.67-9.73.17-1.18-4.72.51-4.22,2.18-7.59,2.51-3,1.67-3.88-.33-1.85-3.35-2.53-1.51A15,15,0,0,0,412.18,357.68Zm20.58-42.27c.34,4.53-3.71,7.22.84,13.25s4.22,10.4,6.59,12.25,4.72,3,8.6,2.18,7.08-1.84,8.09-4,2.2-1.18-1.51-5.2-4.73-1.17-4.73-7.72,2.2-6.87-.5-10.23-4.39-4.53-8.77-3.85A26,26,0,0,0,432.76,315.41Zm54.32,16.44s6.4,3.53,13.5,2.18,8.94-1.17,11.8-4.36,5.4-6.2,7.08-6.2,5.41,6.36,6.42,10.56,4.72,17.45,4.72,17.45.67.83-4.55,0-5.91-1.18-8.78.49-7.25,7.88-12.48,7.39-4.21,0-9.61-4.53-8.1-6.2-8.61-9.73-1.52-5.71-.67-8.39A37.37,37.37,0,0,0,487.08,331.85Zm-114.94-105s6.67-9.14,21.28-11.11,18.93.36,19.29,4.84,2,12.19-4.69,17.93-9.37,9.86-18,13.45a74.23,74.23,0,0,1-13.71,4.48s-3.6-1.62-4.86-4.84-2.71-8.07-4-3.59-1.08,8.24-3.61,12.73-3.78,6.46-11.71,12.36-12.45,8.44-16.05,8.44-5.06-3-7.39-2.33-1.27,3.58-1.27,5.92,1.44,8.25-2.52,11.47-10.82,9-15,10.4-7.57,3.58-10.82,3.58-2.16-2.51.54-6.1,5.23-13.62,5.23-17.92-1.08-14.88-.18-18.65,5.59-16,13.71-17.21,13.52-.36,16.58-.89,2.53-2.69,2.89-4.85,3.06-4.3,5.05-5.74a76.86,76.86,0,0,1,12.62-7.16c4.15-1.62,6.67-2.87,7.75-1.26s3.25,3.58,3.79,1.79.72-2.87,2.88-4.3Zm23.8,39.45s-6.13-3.76-3.43-6.63,3.43-1.62,8.12-4.48,9.91-6.11,11.54-8.8a47.91,47.91,0,0,1,4.51-6.63c3.24-4.3,0-6.63,5.41-7s7.21-1.08,8.11-2.33,8.48.36,12.08,3.76,4.32,4.49,3.43,9-.54,7-4.15,8.42-3.07-1.08-6.67,3.05-4.87,5.38-6.67,7.17-1.09-.19-6,1.25-6,3.59-11.18,6.1-2.53,5-8.66,2.51S395.94,266.3,395.94,266.3Zm-1.27,38s-1.25-7.89,2.9-10.76,6.12-3.95,10.27-1.44,7.58,11.66,9.56,14,3.43,6.82,5.05,7.17,5.41,1.43,4.5,4,.91,4.66-5.58,6.63-7.22,3.23-11.73,2.15-7.75-3.05-9-6.63-2.17-5.2-3.06-8.61A25.47,25.47,0,0,0,394.67,304.31ZM378.1,351.7s5.44-7.39,10-5.12,7,6.11,7.45,8,1.86.71-1,4.56-1.14,4.12-7,9.54-6,5.68-9.88,6-4-.58-5.44-4.85-2.29-4.83-3.58-6.83-1.29-2.7,1.43-4.27a31.5,31.5,0,0,0,6.44-5.41Zm26.83-24.05s-1.35,2.18,5.73,2.18,8.94.69,11.14-1.67,3.37-4.36,4.89-4.52,4.22,2,4.22,4.69,2.36,9.9,2.52,11.4,3.21,2.86.17,3.86-2.35,4.19-8.59,3.86-7.43,1.18-11.82-2.19-6.07-3.68-6.91-7a42.36,42.36,0,0,1-1-7.39Zm60.56,32c-1.36,3.36-.67,5.87-1.36,9.57s-3.19,4.85.35,6.71,3,3.52,5,1,1.35-3,2.19-8.38-.16-11.07-.16-13.43,0-3.85-2.53-.83A24.48,24.48,0,0,0,465.49,359.69Zm3.37-65.07c0,4.52-1.69,8.38,1.35,13.58s1.86,9.4,7.25,13.42,13,7.21,17.38,6.54,21.93-6.88,21.93-6.88-13.33-20-19.74-26-6.07-9-12.48-9-8.77-1.51-11.48,1.34A23.46,23.46,0,0,0,468.86,294.62Zm56.87,62.67c-3.93,7.81-7.39,15.15-7.39,19.83s-.79,8.19.39,12.87,2.75,6.63-1.18,9.75-7.86,4.3-2.75,6.63,6.29.79,10.22,2.35,7.86,1.95,7.07,10.14.79,12.88-3.53,20.68-8.65,12.89-8.65,23-.4,25.37-1.18,32.77,0,14.05-4.72,19.52-7.86,8.19-11.79,1.94-5.9-9.36-11.4-13.66-9.83-7-10.62-12.09-1.18-3.9,3.15-15.21,3.14-11.32,4.32-19.51,2.36-19.9,5.51-23.8,7.86-2.33,9-6.24-3.15-3.23-3.15-10.93-1.21-21.25,1.89-27.64c2.67-5.51,4.36-10.77,8.12-16.51.2-.32,7.52-11.12,12.13-14.88C527,351.61,525.61,357.47,525.73,357.29Zm7.07.06s-11.14,5.53-9.12,19.78,1.53,18,5.74,20.13,6.75,3.19,8.43,3.19,1.19-5.2.17-13.75.5-9.06-1.68-16.27S532.8,357.35,532.8,357.35ZM274.48,572.65s-4.8-2.45-6.42-3-7.62-4.38-8.44-6.48,3.93-5.21,5.1-5.8l4.59-2.35c6.83-3.46,17-8.58,21.08-10.41A170.21,170.21,0,0,0,306.62,536c4.39-2.47,4.53-4.79,6-6.68s2.19-9.3,1.9-12.63,7.45-17.11,9.79-21.18,13.6-26.12,15.51-29,5.26-13.94,5.4-18,3.8-8.55,6-13.5,14.18-31.63,16.51-34.83-.59-5.51-2.48-6.23.87-2.9,2.78-4.35,2.18-5.07,1.9-6.83S364.82,375,361.6,368s-4.82-3.34-4.82-3.34-13,6-17.41,5.81,5.85-8.28,10.39-10.3,1-5.8,1-5.8-6.28-8.13-9.65-12.19-6.29-2-9.94-1.31-6.88-.44-9.66-1.45-5.85-5.95-12.13-13.49-13.45-.15-13.45-.15-8.05,10-11.85,15.23-.88,8.71,1.31,10.74,27.21,37.44,29.11,41.94,4.39,21.62,4.82,26.12-1.32,12.2-3.51,18,2.19,5.52,4.83,5.65,8.18-1,13.16-1,4.67,3.48,4.67,6.68-6.58,6.67-10.23,6.67-4.38,1.16-3.07,3.19-.59,4.06-3.36,6a7.63,7.63,0,0,0-3.22,6.82c0,2.17-2.48,1.88-5.26.14a3.48,3.48,0,0,0-4.68.73s-8.19,12.48-11.26,16-5,5.23-11.26,4.92-6.59-2.9-3.51-4.2a34.57,34.57,0,0,0,9.07-6.53c2.19-2.17,7.75-13.64,9.21-19.74a59.33,59.33,0,0,1,6.87-15.52c1.61-2.47.73-10.17-.3-21.91s-8-33.24-10.23-38.9-5.12-13.2-12.72-20.32-13,2.47-14.47,7.84-8.2,2.75-10.39-.28S254,353.6,253.1,350s-4.68-26.55-5.55-32.8,2.78,3.2,3.66,7.12,6.28,14.21,7.16,16.54,3.21-.14,5.11-1.59,4.1-8.56,6.73-12.49-1.31-7.39-3.07-8.12a50,50,0,0,0-8.33-1.74c-2.78-.43,0-3,3.06-4.79s4.83,0,7.61.87a14,14,0,0,0,8.18-.15c1.9-.72,3.52-3.9,6.44-7.11s6.73-13.35,8.63-19,1.17-15.24.88-20.16-2.93.28-4.24,2.6-5.56,8.71-8.78,11.17-8.62,4.07-11.11,5.38-4.83-.44-7.9-2-5.26.58-7,2c0,0-5.88,7.08-9,9.35s-9.4,7.26-10.87,10.59c-1.33,3-19.81,39.87-23.06,46.37V572.65Z" transform="translate(-7.05 -6)"/><path class="cls-2" d="M211.6,222v41.85L352.21,117.58c47-37.38,112,156.7,210.14,168.48V254.51c-19.25-2.33-35.65-11.78-50.26-24.9,36.81-15.1,64.81-61.74,103.06-83.83,16.76-9.69,37.85-4.85,52.83,5.62,29.18,20.4,44.76,54.76,73.21,76.57,13.67,10.49,29.41,12.9,45.73,14.75l0,.09h.53V242c0-1.62,0-3,0-4.58s-.05-3.43-.1-5.3-.14-3.76-.22-5.49-.2-3.3-.31-4.85-.24-3.1-.4-4.75c-.1-1.13-.23-2.31-.36-3.48h-.35v-.07c-9.89-1.18-19.71-3-28-9.5-35.29-27.77-52-69.86-95.64-88.1-40.3-16.85-77.06,12.6-104.87,37.64-21.52,19.39-38.29,44.1-66.66,53.1C460.37,169.39,419.11,89,369.8,82.43c-30.49-4-48.12,24.65-67.17,46.27Z" transform="translate(-7.05 -6)"/><path class="cls-3" d="M490.6,206.6c28.37-9,45.14-33.71,66.66-53.1,10-9,21.15-18.56,33.21-26.34-18.21-28-50-44.92-87.2-46.38-34.14-1.36-66.71,11.1-83.68,31.8C447.27,141.1,471.21,182.74,490.6,206.6Z" transform="translate(-7.05 -6)"/><path class="cls-4" d="M931.6,963.78a17.27,17.27,0,1,0,5,12.19,17.15,17.15,0,0,0-5-12.19m-16.74,10.79h2.75a13.94,13.94,0,0,0,3.33-.24,1.93,1.93,0,0,0,1-.78,2.27,2.27,0,0,0,.39-1.38,2.34,2.34,0,0,0-.49-1.51,2.27,2.27,0,0,0-1.4-.7c-.31-.05-1.22-.07-2.71-.07h-2.9Zm-3.71,10.59V966.79H919a13.85,13.85,0,0,1,4.29.48,4.23,4.23,0,0,1,2.14,1.78,5.18,5.18,0,0,1,.8,2.88,4.92,4.92,0,0,1-1.21,3.42,5.91,5.91,0,0,1-3.61,1.71,8.27,8.27,0,0,1,2,1.54,22,22,0,0,1,2.11,3l2.23,3.59h-4.43l-2.67-4a26,26,0,0,0-2-2.69,2.61,2.61,0,0,0-1.1-.75,6.55,6.55,0,0,0-1.88-.21h-.76v7.67Zm8.25-29.8a20.59,20.59,0,1,1-14.58,6A20.6,20.6,0,0,1,919.4,955.36Z" transform="translate(-7.05 -6)"/><path class="cls-4" d="M94.37,625.37h-37L7.05,792.79H40.9L49,758.22H96.25l8.35,34.57h37.6ZM56.14,729.5l16.29-68.62L89.36,729.5Z" transform="translate(-7.05 -6)"/><path class="cls-4" d="M153.06,625.37V792.79h34.57V625.37Z" transform="translate(-7.05 -6)"/><path class="cls-4" d="M260.55,764.27c-4.91,0-8.46-.83-10.55-2.5a9.77,9.77,0,0,1-3.66-6.27c-.31-2.51-.52-7.94-.52-16.4V691h22.77V663.87H245.82V624.94H212.19v38.93H198.51V691h13.68v51.84c0,13.16.83,22.77,2.3,28.83s5.12,11.07,10.75,15.14,13.58,6,24,6a100.39,100.39,0,0,0,21.09-2.51V764C266.39,764.17,263.16,764.27,260.55,764.27Z" transform="translate(-7.05 -6)"/><path class="cls-4" d="M325,768.77a14.47,14.47,0,0,1-11.8-5.64c-3-3.76-4.49-11.08-4.49-22.25v-6.79h64.86q0-40.11-14.21-55.14c-9.4-10-21.1-15-35.2-15-15.56,0-28,5.64-37.28,17S273,708.61,273,730.12c0,19.12,4.38,34.26,13.05,45.64s21.52,17,38.33,17c27.37,0,43.66-14.31,49.2-43.14l-30.82-2C341.47,761.77,335.52,768.77,325,768.77Zm-.11-82c10.76,0,16.19,7.94,16.19,23.92,0,.73-.1,1.88-.21,3.34h-32Q309,686.79,324.86,686.78Z" transform="translate(-7.05 -6)"/><path class="cls-4" d="M444.13,663.91c-14.1,0-23.91,10.55-29.34,31.54V663.87h-30.4V792.78H419v-56.7c0-25.49,8.35-38.33,25.27-38.33a52.34,52.34,0,0,1,5.74.52V664.53A32.59,32.59,0,0,0,444.13,663.91Z" transform="translate(-7.05 -6)"/><path class="cls-4" d="M554.88,683.29a24.38,24.38,0,0,0-10.13-14c-5.33-3.55-12-5.43-20-5.43q-22.56,0-31,19.42V663.87H460.89V792.75h34.57v-75.2c0-10.34,1-17.44,2.92-21.2s6.06-5.75,12.32-5.75a12.5,12.5,0,0,1,8.57,2.93c2.09,2,3.24,7.1,3.24,15.45v83.77h34.57V709Q557.08,691.76,554.88,683.29Z" transform="translate(-7.05 -6)"/><path class="cls-4" d="M666.21,762.81v-49.5c0-12.33-.94-21.41-2.82-27.37s-6.26-11-13.26-15.45-16.4-6.69-28-6.69q-20.52,0-34.15,10c-9,6.68-14.31,16.29-15.88,28.72l32.8,3.24c.83-12.74,5.74-19,14.52-19q7.2,0,9.71,4.7,2.5,4.86,2.51,17.23v4.6c-24.23,1.46-40.84,6.06-50,13.57S567.94,745.16,567.94,759c0,11.07,3,19.42,9.08,25.27s13.89,8.57,23.5,8.57c15,0,26.32-7.21,33.94-21.52,0,9.3.53,18.16,1.68,21.51H668.3C666.84,789.85,666.21,778.16,666.21,762.81Zm-34.56-25.59c0,12.54-1.78,21.21-5.12,25.91s-7.21,7-11.39,7c-7.62,0-11.49-5.22-11.49-15.66,0-7.84,2.09-13.37,6.38-16.71s11.48-5.43,21.62-6.58Z" transform="translate(-7.05 -6)"/><path class="cls-4" d="M753.85,663.87V792.79h34.57V663.87Zm-.21-38.93v31.29h34.78V624.94Z" transform="translate(-7.05 -6)"/><path class="cls-4" d="M866.86,663.8l-17.24,73-17-73H799.28l35,129h27.36l34-129Z" transform="translate(-7.05 -6)"/><path class="cls-4" d="M989.94,762.81v-49.5c0-12.33-.83-21.41-2.71-27.37S981,675,974,670.49s-16.39-6.69-28-6.69q-20.67,0-34.15,10c-9.08,6.68-14.31,16.29-15.87,28.72l32.69,3.24c.93-12.74,5.74-19,14.51-19q7.22,0,9.71,4.7,2.52,4.86,2.51,17.23v4.6c-24.12,1.46-40.73,6.06-49.92,13.57S891.77,745.16,891.77,759c0,11.07,3,19.42,9,25.27s13.89,8.57,23.6,8.57c14.94,0,26.32-7.21,33.84-21.52,0,9.3.63,18.16,1.78,21.51H992C990.67,789.85,989.94,778.16,989.94,762.81Zm-34.57-25.59c0,12.54-1.67,21.21-5,25.91s-7.21,7-11.39,7c-7.72,0-11.48-5.22-11.48-15.66,0-7.84,2.08-13.37,6.37-16.71s11.49-5.43,21.51-6.58Z" transform="translate(-7.05 -6)"/><path class="cls-4" d="M733,764.27c-4.91,0-8.46-.83-10.55-2.5a9.77,9.77,0,0,1-3.66-6.27c-.31-2.51-.52-7.94-.52-16.4V691H741V663.87H718.23V624.94H684.61v38.93H670.92V691H684.6v51.84c0,13.16.84,22.77,2.3,28.83a26.57,26.57,0,0,0,10.75,15.14c5.54,4,13.58,6,24,6a100.31,100.31,0,0,0,21.09-2.51V764C738.81,764.17,735.57,764.27,733,764.27Z" transform="translate(-7.05 -6)"/><path class="cls-4" d="M124.93,828.74C115.32,841.48,103,851.2,88.05,859v32.69a105.26,105.26,0,0,0,28.2-21V996.58H153V828.74Z" transform="translate(-7.05 -6)"/><path class="cls-4" d="M267.22,871.58c-2.74-12.38-7.92-22.64-15.74-30.76s-19.19-12.08-34.32-12.08c-17.16,0-30,5.28-38.68,15.73s-12.8,22.85-12.8,37.37A61.29,61.29,0,0,0,177,917.68c7.52,10.76,18.28,16.15,32.49,16.15,12.49,0,21.93-4.88,28.33-14.73l.1,5.08c0,30.87-6.7,46.4-20.1,46.4-9.54,0-15.33-6.6-17.46-19.8l-31,6q9,39.75,47.11,39.8,54.68,0,54.73-86.71A184.11,184.11,0,0,0,267.22,871.58Zm-48.84,33.1c-12.08,0-18.18-8.32-18.18-25,0-8.43,1.73-14.62,5.18-18.79s7.62-6.19,12.49-6.19a16.32,16.32,0,0,1,13.61,6.6c3.35,4.36,5,10.56,5,18.48C236.45,896.36,230.46,904.68,218.38,904.68Z" transform="translate(-7.05 -6)"/><path class="cls-4" d="M377.54,828.74v53.78c-4.91-8.77-13.16-13.26-24.65-13.26-12.53,0-22.56,5.33-30,16S311.64,912,311.64,933.39c0,18.9,3.34,34.15,9.82,45.85s16.5,17.33,29.76,17.33c13.58,0,22.87-7.41,28.2-22.14v22.14h32.07V828.74Zm0,116c0,11.28-1.46,18.7-4.38,22.35a13.45,13.45,0,0,1-11,5.43c-5.33,0-9.09-2.71-11.39-8s-3.44-14.83-3.44-28.2c0-18,1-29.76,3.13-35.51s6.06-8.56,11.91-8.56a12.66,12.66,0,0,1,11.28,6.16c2.61,4.18,3.86,12.32,3.86,24.44Z" transform="translate(-7.05 -6)"/><path class="cls-4" d="M534.19,828.74V997h34.57V828.74Z" transform="translate(-7.05 -6)"/><path class="cls-4" d="M474.72,972.51a14.5,14.5,0,0,1-11.8-5.64c-3-3.76-4.49-11.07-4.49-22.24v-6.79h64.86q0-40.11-14.21-55.15c-9.4-10-21.09-15-35.19-15-15.57,0-28,5.64-37.29,17s-13.89,27.67-13.89,49.19c0,19.11,4.39,34.26,13.06,45.64s21.51,17,38.32,17c27.37,0,43.66-14.31,49.2-43.13l-30.81-2C491.22,965.51,485.27,972.51,474.72,972.51Zm-.1-82c10.76,0,16.19,7.93,16.19,23.91,0,.73-.11,1.88-.21,3.35h-32Q458.79,890.52,474.62,890.53Z" transform="translate(-7.05 -6)"/><path class="cls-4" d="M795.88,867.66v65.62c0,12.12-.21,20.16-.74,24s-1.88,7-4.17,9.19-5.75,3.35-10.24,3.35c-4.91,0-8.14-1.36-9.61-4.08s-2.19-8-2.19-16.08v-82H734.36v83c0,12,.63,20.78,2.09,26.42a24.6,24.6,0,0,0,9.19,14c4.7,3.65,11.49,5.53,20.47,5.53a40.38,40.38,0,0,0,17.23-3.44c4.81-2.3,9.71-7.73,14.62-16.09v19.53h32.49V867.66Z" transform="translate(-7.05 -6)"/><path class="cls-4" d="M905.18,867.7q-21.15,0-29.35,31.55V867.66H845.44V996.57H880v-56.7c0-25.48,8.36-38.33,25.28-38.33a52.92,52.92,0,0,1,5.74.53V868.33A31.79,31.79,0,0,0,905.18,867.7Z" transform="translate(-7.05 -6)"/><path class="cls-4" d="M720.28,866.67,690.69,878q-6.32-20.16-23.14-20.16-7.87,0-12.46,4.48a14.12,14.12,0,0,0-4.59,10.43,13.14,13.14,0,0,0,5.42,11q5.43,4.11,22.73,10.79,15.74,5.85,24.75,11.57A43.28,43.28,0,0,1,718,921.72a45.72,45.72,0,0,1,5.55,22.84q0,22.79-15.69,37.4t-42,14.61q-44.25,0-56.54-44.73l31.26-9q5.71,24.58,26.12,24.58,9.3,0,15.09-4.83a15.74,15.74,0,0,0,5.78-12.71,15.93,15.93,0,0,0-4.05-10.67q-4.06-4.71-18.61-10-18.73-6.69-27.91-12.11a42.89,42.89,0,0,1-15.15-15.51,44.18,44.18,0,0,1-6-23q0-21.94,14.14-36t37.39-14Q709.79,828.74,720.28,866.67Z" transform="translate(-7.05 -6)"/></svg>